<?xml version="1.0" standalone="no"?>
<!DOCTYPE svg PUBLIC "-//W3C//DTD SVG 20010904//EN"
 "http://www.w3.org/TR/2001/REC-SVG-20010904/DTD/svg10.dtd">
<svg version="1.0" xmlns="http://www.w3.org/2000/svg"
 width="1048.000000pt" height="238.000000pt" viewBox="0 0 1048.000000 238.000000"
 preserveAspectRatio="xMidYMid meet">

<g transform="translate(0.000000,238.000000) scale(0.100000,-0.100000)"
fill="#000000" stroke="none">
<path d="M1050 2134 c-84 -16 -193 -50 -256 -78 -257 -119 -450 -349 -526
-627 -19 -71 -23 -108 -23 -239 0 -130 4 -169 24 -240 47 -175 125 -306 260
-440 261 -257 636 -338 988 -212 238 84 449 285 548 521 56 134 70 209 70 376
0 124 -4 165 -23 233 -90 334 -347 592 -677 682 -60 17 -115 23 -220 25 -77 2
-151 1 -165 -1z m760 -473 c0 -5 -10 -34 -21 -65 l-22 -56 -384 -2 -385 -3
-49 -135 c-27 -74 -49 -138 -49 -142 0 -4 50 -8 110 -8 64 0 110 -4 110 -10 0
-5 -9 -34 -21 -65 l-20 -55 -117 0 -117 0 -24 -67 c-13 -38 -32 -92 -43 -120
l-19 -53 -65 0 c-35 0 -64 2 -64 5 0 8 271 749 281 767 9 17 40 18 454 18 261
0 445 -4 445 -9z m-455 -253 c-18 -51 -38 -106 -44 -121 -6 -16 -11 -30 -11
-33 0 -2 81 -4 180 -4 99 0 180 -1 180 -3 0 -2 -39 -108 -86 -237 -47 -129
-90 -247 -96 -262 l-10 -28 -449 0 c-247 0 -449 2 -449 4 0 2 10 29 21 60 l22
56 382 0 383 0 45 123 c25 67 49 130 52 140 7 16 -6 17 -175 17 -141 0 -181 3
-178 13 3 6 34 92 69 189 l64 178 67 0 67 0 -34 -92z"/>
<path d="M2356 1579 c-19 -23 -26 -42 -26 -74 0 -42 -1 -44 -32 -47 -46 -4
-49 -28 -4 -28 l36 0 0 -170 c0 -163 1 -170 20 -170 19 0 20 7 20 170 l0 170
55 0 c42 0 55 3 55 15 0 12 -13 15 -55 15 l-55 0 0 49 c0 62 15 75 80 69 36
-4 50 -2 50 7 0 17 -23 25 -75 25 -36 0 -48 -5 -69 -31z"/>
<path d="M3300 1350 c0 -224 2 -260 15 -260 11 0 15 13 15 54 0 51 2 56 45 95
24 22 48 41 53 41 4 0 41 -43 81 -95 47 -60 80 -95 92 -95 11 0 19 2 19 5 0 3
-36 50 -80 106 -44 55 -80 103 -80 107 0 4 35 39 77 79 64 60 74 72 55 73 -15
0 -60 -34 -136 -105 -63 -58 -117 -105 -120 -105 -3 0 -6 81 -6 180 0 153 -2
180 -15 180 -13 0 -15 -36 -15 -260z"/>
<path d="M4614 1451 c-49 -22 -74 -54 -74 -96 0 -57 44 -95 125 -109 97 -17
127 -40 93 -74 -17 -17 -112 -15 -155 3 -45 19 -40 20 -59 -16 -18 -36 -14
-42 46 -59 47 -13 166 -13 193 1 62 32 91 94 66 140 -19 36 -38 47 -113 64
-86 20 -106 30 -106 56 0 37 82 51 145 25 35 -15 35 -15 50 15 20 38 15 44
-39 58 -65 16 -125 13 -172 -8z"/>
<path d="M4934 1455 c-12 -30 1 -259 16 -290 36 -71 154 -100 228 -55 40 25
42 25 42 0 0 -17 7 -20 40 -20 l40 0 0 191 0 190 -42 -3 -43 -3 -5 -120 c-3
-66 -9 -128 -14 -138 -11 -23 -58 -47 -91 -47 -16 0 -38 12 -56 29 -29 29 -29
30 -29 155 l0 126 -40 0 c-27 0 -43 -5 -46 -15z"/>
<path d="M5465 1456 c-65 -24 -96 -78 -78 -132 14 -42 52 -64 139 -82 82 -18
101 -35 74 -67 -16 -19 -101 -19 -155 0 -21 8 -40 13 -40 12 -1 -1 -9 -14 -18
-29 -12 -20 -13 -28 -4 -36 26 -20 83 -32 150 -32 106 0 167 42 167 116 0 55
-37 86 -120 99 -71 11 -110 31 -110 55 0 38 75 51 147 26 l40 -14 16 33 c15
32 15 33 -11 45 -43 19 -152 22 -197 6z"/>
<path d="M5826 1456 c-55 -21 -61 -29 -46 -65 l12 -30 32 16 c44 24 128 23
155 -1 12 -11 21 -30 21 -43 0 -22 -3 -23 -70 -23 -39 0 -86 -7 -108 -15 -40
-16 -72 -58 -72 -95 0 -34 28 -79 61 -96 47 -24 134 -22 170 5 29 21 29 21 29
1 0 -17 6 -20 40 -20 l40 0 0 138 c0 150 -10 182 -65 218 -35 23 -148 29 -199
10z m174 -235 c0 -39 -40 -71 -88 -71 -42 0 -72 24 -72 56 0 32 25 43 98 44
l62 0 0 -29z"/>
<path d="M6209 1466 c-2 -2 -3 -88 -1 -190 l3 -186 39 0 40 0 0 105 c0 152 23
195 102 195 70 0 87 -41 88 -202 l0 -98 40 0 40 0 0 98 c0 155 23 202 98 202
75 0 92 -36 92 -197 l0 -103 40 0 40 0 0 136 c0 163 -11 196 -74 225 -68 31
-145 22 -192 -22 l-22 -20 -27 25 c-48 44 -141 47 -197 6 l-28 -21 0 26 c0 22
-4 25 -38 25 -21 0 -41 -2 -43 -4z"/>
<path d="M2550 1334 c0 -150 17 -201 74 -228 68 -32 165 -15 200 36 16 22 16
22 16 -15 0 -30 4 -37 20 -37 20 0 20 5 18 182 -3 165 -5 183 -20 186 -16 3
-18 -8 -18 -121 0 -113 -2 -127 -23 -158 -28 -41 -60 -59 -110 -59 -41 0 -91
24 -104 49 -4 9 -10 77 -13 151 -4 118 -7 135 -22 138 -16 3 -18 -8 -18 -124z"/>
<path d="M3030 1275 c0 -158 2 -185 15 -185 12 0 15 19 15 113 1 158 23 202
113 221 31 7 37 36 7 36 -29 0 -81 -28 -102 -54 -17 -21 -18 -21 -18 17 0 26
-4 37 -15 37 -13 0 -15 -27 -15 -185z"/>
<path d="M3745 1445 c-22 -9 -46 -22 -54 -30 -23 -22 11 -30 42 -10 14 9 50
19 80 22 49 5 57 3 85 -23 23 -21 32 -39 34 -69 l3 -40 -93 -2 c-106 -3 -143
-17 -162 -63 -30 -71 30 -140 122 -140 52 0 79 10 116 43 l22 20 0 -31 c0 -22
5 -32 15 -32 13 0 15 22 15 138 0 148 -6 171 -52 205 -35 26 -120 32 -173 12z
m192 -207 c5 -37 -21 -84 -57 -103 -44 -23 -119 -20 -147 7 -42 40 -25 107 32
121 11 3 53 4 94 4 73 -2 74 -2 78 -29z"/>
<path d="M4114 1447 c-2 -7 -3 -89 -2 -182 3 -152 5 -170 21 -173 15 -3 17 8
17 115 0 136 14 176 71 205 42 22 78 23 125 3 52 -21 64 -60 64 -205 0 -100 2
-120 15 -120 13 0 15 22 15 138 0 120 -3 141 -20 170 -47 77 -182 83 -249 11
l-21 -23 0 37 c0 27 -4 37 -15 37 -9 0 -18 -6 -21 -13z"/>
<path d="M3971 920 c-17 -10 -7 -40 13 -40 7 0 16 6 19 14 8 19 -15 37 -32 26z"/>
<path d="M3170 807 c0 -94 3 -114 15 -114 12 0 15 20 15 114 0 94 -3 113 -15
113 -12 0 -15 -19 -15 -113z"/>
<path d="M3875 910 c-8 -13 3 -30 20 -30 14 0 27 24 18 34 -10 9 -31 7 -38 -4z"/>
<path d="M4052 903 c2 -10 10 -18 18 -18 22 0 18 29 -3 33 -14 3 -18 -1 -15
-15z"/>
<path d="M4447 913 c-9 -8 -9 -207 -1 -216 3 -3 12 -3 20 0 20 7 21 223 1 223
-8 0 -17 -3 -20 -7z"/>
<path d="M5204 905 c-4 -9 -4 -27 -1 -41 4 -20 1 -24 -12 -18 -49 23 -105 -4
-116 -57 -13 -58 50 -114 102 -90 14 7 29 8 32 4 3 -4 12 -9 19 -10 9 -2 12
25 12 112 0 97 -2 115 -15 115 -9 0 -18 -7 -21 -15z m-5 -107 c12 -34 -2 -63
-33 -66 -33 -4 -56 13 -56 42 0 30 18 46 52 46 21 0 31 -6 37 -22z"/>
<path d="M2320 903 c-28 -10 -50 -36 -50 -58 0 -29 26 -51 78 -64 45 -13 55
-33 23 -50 -12 -7 -31 -7 -56 0 -40 11 -51 8 -42 -15 3 -8 26 -18 52 -22 38
-5 52 -3 73 13 30 22 40 57 21 79 -6 8 -32 20 -58 28 -34 10 -46 18 -46 32 0
16 8 19 49 20 56 1 72 18 31 34 -28 11 -51 12 -75 3z"/>
<path d="M3380 897 c-27 -13 -38 -53 -21 -70 8 -8 4 -19 -15 -38 -31 -32 -29
-55 9 -82 25 -19 31 -20 73 -9 35 9 50 10 60 1 11 -9 15 -7 20 6 4 9 2 21 -4
27 -7 7 -7 19 -2 33 11 29 -14 43 -29 17 -9 -16 -12 -15 -32 4 l-21 22 21 11
c32 17 29 68 -5 81 -30 12 -24 12 -54 -3z m48 -38 c4 -19 -27 -34 -41 -20 -14
14 0 43 20 39 10 -2 19 -10 21 -19z m-8 -95 c21 -21 22 -27 10 -35 -37 -23
-87 14 -61 45 18 21 23 20 51 -10z"/>
<path d="M3632 798 c3 -115 1 -113 95 -102 88 10 132 76 98 147 -21 44 -51 57
-131 57 l-65 0 3 -102z m143 47 c28 -27 31 -45 14 -78 -17 -31 -28 -37 -76
-37 l-43 0 0 70 0 70 40 0 c30 0 47 -7 65 -25z"/>
<path d="M4620 797 c0 -86 3 -104 15 -104 12 0 15 14 15 64 0 35 3 63 8 63 4
0 19 -23 34 -50 16 -28 33 -50 38 -50 6 0 25 24 43 53 l32 52 3 -60 c3 -55 15
-80 34 -69 4 3 8 50 8 105 0 91 -2 99 -19 99 -13 0 -31 -21 -57 -66 -44 -74
-41 -74 -96 20 -45 76 -58 64 -58 -57z"/>
<path d="M5730 824 c0 -70 2 -78 29 -105 31 -31 67 -37 104 -17 39 20 46 40
47 121 0 70 -2 77 -20 77 -18 0 -20 -7 -20 -73 0 -80 -9 -97 -50 -97 -41 0
-50 17 -50 97 0 66 -2 73 -20 73 -18 0 -20 -7 -20 -76z"/>
<path d="M4140 870 c0 -11 -4 -20 -10 -20 -5 0 -10 -7 -10 -15 0 -8 5 -15 10
-15 6 0 10 -20 10 -45 0 -52 28 -88 63 -83 28 4 29 33 2 33 -17 0 -20 8 -23
48 -3 42 -1 47 17 47 12 0 21 7 21 15 0 8 -9 15 -20 15 -13 0 -20 7 -20 20 0
13 -7 20 -20 20 -13 0 -20 -7 -20 -20z"/>
<path d="M2504 850 c-28 -11 -54 -48 -54 -76 0 -29 34 -70 64 -78 29 -7 74 8
92 32 8 9 13 31 13 47 0 37 -17 61 -53 75 -32 12 -34 12 -62 0z m64 -42 c7 -7
12 -21 12 -33 0 -12 -5 -26 -12 -33 -7 -7 -21 -12 -33 -12 -12 0 -26 5 -33 12
-7 7 -12 21 -12 33 0 12 5 26 12 33 7 7 21 12 33 12 12 0 26 -5 33 -12z"/>
<path d="M2678 849 c-49 -19 -43 -73 10 -85 44 -9 52 -13 52 -23 0 -16 -35
-22 -63 -12 -20 8 -27 7 -31 -5 -8 -20 40 -37 82 -29 21 4 37 14 44 30 14 32
-2 52 -48 61 -19 3 -37 11 -40 16 -10 16 18 29 48 22 22 -4 48 10 37 20 -12
11 -68 13 -91 5z"/>
<path d="M2790 850 c0 -4 14 -38 30 -75 17 -37 30 -75 30 -86 0 -14 -7 -19
-30 -19 -20 0 -30 -5 -30 -15 0 -10 11 -15 35 -15 41 0 49 10 99 127 29 68 32
82 20 87 -11 4 -23 -11 -42 -55 l-26 -62 -26 58 c-15 34 -33 59 -43 61 -9 1
-17 -1 -17 -6z"/>
<path d="M3010 851 c-43 -12 -30 -34 19 -35 26 -1 46 -6 48 -13 3 -9 -7 -13
-31 -13 -35 0 -76 -27 -76 -50 0 -16 39 -50 58 -50 9 0 24 4 32 10 9 5 19 5
27 -1 22 -19 33 1 33 55 0 80 -42 117 -110 97z m70 -99 c0 -14 -23 -32 -41
-32 -21 0 -33 16 -24 30 7 12 65 14 65 2z"/>
<path d="M3880 775 c0 -66 3 -82 15 -82 12 0 15 16 15 82 0 66 -3 82 -15 82
-12 0 -15 -16 -15 -82z"/>
<path d="M3966 853 c-3 -4 -6 -46 -6 -94 0 -82 -1 -88 -22 -91 -12 -2 -23 -9
-26 -15 -5 -17 60 -17 76 -1 18 18 16 194 -2 201 -8 3 -17 3 -20 0z"/>
<path d="M4055 847 c-4 -8 -5 -45 -3 -83 2 -53 6 -69 18 -69 12 0 15 15 15 79
0 55 -4 81 -12 83 -7 3 -15 -2 -18 -10z"/>
<path d="M4290 851 c-43 -12 -30 -34 19 -35 26 -1 46 -6 48 -13 3 -9 -7 -13
-30 -13 -19 0 -45 -8 -58 -19 -20 -16 -22 -22 -11 -45 13 -29 51 -42 80 -27
13 7 22 7 30 -1 19 -19 32 3 32 56 0 80 -42 117 -110 97z m68 -103 c-11 -33
-68 -36 -68 -3 0 11 10 15 36 15 23 0 34 -4 32 -12z"/>
<path d="M4934 846 c-43 -19 -58 -71 -34 -116 14 -26 71 -43 104 -31 44 17 32
37 -21 37 -28 -1 -48 4 -50 12 -3 9 12 12 56 12 54 0 61 2 61 19 0 24 -38 67
-65 75 -11 3 -34 -1 -51 -8z m57 -26 c31 -17 22 -30 -21 -30 -42 0 -52 12 -22
29 21 13 20 13 43 1z"/>
<path d="M5270 849 c0 -4 14 -38 30 -75 17 -37 29 -75 28 -83 -2 -9 -16 -18
-33 -21 -16 -3 -28 -9 -27 -15 3 -15 67 -18 79 -3 18 21 91 196 85 202 -14 14
-25 2 -51 -55 l-28 -61 -25 59 c-16 37 -32 60 -42 60 -9 0 -16 -4 -16 -8z"/>
<path d="M5490 851 c-43 -12 -30 -34 19 -35 26 -1 46 -6 48 -13 3 -9 -7 -13
-30 -13 -19 0 -45 -8 -58 -19 -20 -16 -22 -22 -11 -45 13 -29 51 -42 80 -27
13 7 22 7 30 -1 19 -19 32 3 32 56 0 80 -42 117 -110 97z m68 -103 c-11 -33
-68 -36 -68 -3 0 11 10 15 36 15 23 0 34 -4 32 -12z"/>
<path d="M5954 849 c-10 -17 6 -27 41 -25 19 1 35 0 35 -2 0 -2 -18 -27 -40
-55 -22 -28 -39 -55 -37 -61 2 -6 31 -11 68 -11 50 0 64 3 64 15 0 11 -11 15
-40 16 -22 0 -39 4 -38 8 1 3 19 27 40 52 21 25 38 50 38 57 0 14 -122 20
-131 6z"/>
<path d="M6124 847 c-3 -8 -4 -45 -2 -83 2 -53 6 -69 18 -69 11 0 16 14 18 50
4 57 15 75 47 75 28 0 35 -17 35 -79 0 -36 4 -48 15 -48 11 0 15 11 15 38 0
63 15 91 48 87 25 -3 27 -6 32 -63 4 -44 9 -60 20 -60 11 0 16 15 18 61 3 57
1 64 -24 83 -31 24 -40 25 -74 8 -21 -11 -29 -11 -47 1 -17 11 -30 12 -53 4
-18 -7 -32 -7 -35 -1 -9 13 -25 11 -31 -4z"/>
<path d="M6458 847 c-36 -16 -23 -32 26 -32 23 0 41 -5 44 -12 2 -9 -7 -13
-28 -13 -48 0 -70 -16 -70 -51 0 -39 37 -58 77 -40 18 8 29 9 31 2 2 -5 10 -7
18 -4 10 4 14 22 14 62 0 65 -5 76 -43 90 -34 13 -35 13 -69 -2z m72 -102 c0
-18 -48 -31 -62 -17 -16 16 0 32 33 32 19 0 29 -5 29 -15z"/>
<path d="M6632 851 c-20 -12 -12 -156 8 -156 10 0 16 12 18 40 5 75 10 85 42
85 32 0 37 -10 42 -85 2 -28 8 -40 18 -40 22 0 26 99 6 130 -18 28 -59 39 -87
24 -15 -8 -24 -8 -28 -1 -4 6 -12 7 -19 3z"/>
<path d="M6822 773 c2 -61 6 -78 18 -78 12 0 16 17 18 78 3 72 2 77 -18 77
-20 0 -21 -5 -18 -77z"/>
</g>
</svg>
