<?xml version="1.0" standalone="no"?>
<!DOCTYPE svg PUBLIC "-//W3C//DTD SVG 20010904//EN"
 "http://www.w3.org/TR/2001/REC-SVG-20010904/DTD/svg10.dtd">
<svg version="1.0" xmlns="http://www.w3.org/2000/svg"
 width="4224.000000pt" height="960.000000pt" viewBox="0 0 4224.000000 960.000000"
 preserveAspectRatio="xMidYMid meet">

<g transform="translate(0.000000,960.000000) scale(0.100000,-0.100000)"
fill="#000000" stroke="none">
<path d="M1 7278 c1 -1278 5 -2296 9 -2263 5 33 13 127 19 209 20 263 77 597
147 856 29 106 132 415 157 470 13 30 50 116 81 190 148 359 364 728 635 1085
461 609 1076 1116 1786 1473 190 96 262 126 560 238 l170 63 -1782 1 -1783 0
1 -2322z"/>
<path d="M6935 9590 c11 -4 97 -36 190 -70 185 -68 311 -125 593 -267 581
-294 1140 -743 1575 -1265 85 -103 196 -244 240 -308 304 -438 538 -901 690
-1365 55 -170 110 -370 132 -485 9 -47 20 -101 25 -120 35 -142 69 -493 81
-838 14 -421 -6 -759 -62 -1046 -38 -196 -41 -211 -49 -221 -4 -5 -11 -26 -15
-45 -4 -19 -20 -84 -37 -145 -27 -100 -53 -172 -165 -475 -43 -115 -173 -390
-185 -390 -4 0 -8 -5 -8 -10 0 -11 -95 -184 -167 -305 -152 -255 -411 -605
-576 -779 -27 -28 -93 -99 -148 -158 -122 -130 -382 -364 -544 -489 -377 -291
-823 -545 -1286 -729 -85 -34 -161 -66 -169 -71 -8 -5 7717 -9 17588 -9
l17602 0 0 535 0 535 -25 6 c-14 4 -50 4 -80 2 l-55 -5 0 310 c0 290 -1 315
-21 373 -40 119 -112 168 -249 168 -93 1 -148 -19 -209 -75 l-31 -28 0 50 c0
27 -3 49 -6 49 -4 0 -31 -14 -60 -30 -61 -36 -92 -69 -125 -137 -23 -47 -24
-57 -29 -362 l-5 -314 -77 -1 -78 -1 0 493 0 493 68 -2 c88 -3 94 -6 91 -43
-1 -17 -1 -49 0 -71 l2 -40 27 31 c41 46 96 84 123 84 17 0 20 3 11 9 -10 6
-6 11 17 19 l31 11 0 -45 0 -45 38 31 c63 51 129 70 237 70 63 0 95 -4 95 -11
0 -7 10 -9 25 -5 16 4 25 2 25 -5 0 -6 7 -8 17 -5 10 4 14 4 10 0 -4 -4 11
-15 32 -25 88 -39 170 -161 190 -281 5 -33 9 311 10 884 l1 938 -252 2 -253 3
-2 925 c-1 509 -4 977 -7 1040 -13 264 -97 438 -264 547 -85 55 -152 74 -282
80 -209 10 -333 -38 -480 -187 -113 -113 -172 -233 -200 -403 -5 -37 -11 -449
-13 -1017 -2 -525 -7 -963 -11 -972 -7 -16 -29 -18 -241 -18 -128 0 -239 2
-247 5 -11 4 -12 178 -10 997 3 873 1 1005 -13 1098 -27 173 -66 261 -156 351
-69 69 -169 122 -264 140 -83 16 -254 5 -330 -21 -33 -11 -85 -35 -115 -53
l-55 -33 -3 -622 -2 -622 -201 0 -200 0 2 -605 c1 -333 0 -607 -2 -609 -2 -2
-25 -6 -51 -8 l-48 -6 0 209 0 209 -122 -123 c-272 -274 -511 -371 -908 -370
-158 1 -308 17 -391 44 -220 70 -408 187 -565 351 -147 155 -247 306 -309 473
-98 264 -110 336 -110 680 0 185 5 304 13 350 70 378 187 614 416 840 61 61
138 128 171 150 164 108 365 191 530 221 149 26 431 16 571 -22 32 -9 79 -20
104 -25 156 -31 431 -225 554 -389 l41 -55 5 220 5 220 108 3 c100 2 109 1
114 -17 5 -19 40 -31 94 -31 22 0 29 -5 29 -20 0 -25 14 -25 50 0 53 38 134
68 255 96 109 26 138 28 315 28 181 1 202 -1 296 -26 55 -15 125 -36 155 -48
67 -27 165 -96 235 -167 55 -56 134 -168 134 -190 0 -24 29 -13 45 16 47 93
204 234 345 313 159 89 398 130 625 108 148 -14 243 -39 360 -95 301 -143 474
-422 523 -845 6 -46 10 706 11 1923 l1 1997 -17662 -1 c-9715 0 -17654 -4
-17643 -9z m7038 -1845 c15 -7 17 -27 17 -235 l0 -227 -134 5 c-106 4 -149 1
-207 -13 -105 -25 -200 -77 -260 -143 -98 -107 -137 -223 -146 -439 l-6 -143
356 0 356 0 -2 -232 -2 -233 -350 -5 c-192 -3 -352 -7 -354 -8 -1 -1 -1 -566
0 -1254 l4 -1253 -252 -3 -253 -3 -2 1258 -3 1258 -242 3 -243 2 0 235 0 235
245 0 245 0 0 120 c0 239 30 399 104 555 56 118 93 174 170 253 98 102 213
173 366 225 133 46 218 57 405 52 94 -2 178 -7 188 -10z m5707 -1236 l0 -1202
43 39 c23 22 82 82 131 134 50 52 158 165 240 250 608 625 760 782 777 804
l20 26 321 0 321 0 -63 -67 c-70 -74 -530 -550 -810 -838 -96 -98 -234 -240
-306 -314 l-131 -135 13 -40 c24 -78 38 -106 53 -106 8 0 11 -3 8 -7 -4 -3 4
-21 18 -39 14 -18 25 -37 25 -42 0 -14 104 -135 310 -361 102 -112 219 -241
260 -287 41 -45 176 -193 300 -329 124 -135 262 -288 307 -338 l81 -92 -311
-3 -312 -3 -29 33 c-131 149 -172 194 -246 273 -47 49 -148 160 -225 245 -77
85 -172 189 -211 230 -38 41 -124 134 -189 205 -65 72 -171 185 -234 253 -63
67 -121 131 -128 142 -8 11 -18 20 -24 20 -5 0 -9 -268 -9 -700 l0 -700 -249
2 -249 3 -7 1040 c-4 572 -4 1505 0 2073 l7 1032 249 0 249 0 0 -1201z m3596
92 c130 -27 228 -61 329 -114 150 -80 280 -190 364 -307 l46 -65 5 220 5 220
248 3 247 2 2 -1440 c1 -792 2 -1466 3 -1497 l0 -58 -253 -3 -254 -3 4 220 c3
230 -1 250 -36 191 -32 -55 -188 -210 -265 -264 -124 -87 -247 -148 -334 -165
-23 -5 -78 -17 -122 -26 -111 -25 -403 -26 -532 -2 -343 64 -637 257 -846 554
-188 268 -273 548 -284 938 -12 421 67 716 276 1030 156 236 418 436 685 524
78 26 131 37 321 65 67 10 296 -4 391 -23z m3423 19 c275 -29 467 -115 632
-286 108 -112 171 -214 222 -364 76 -220 77 -235 77 -1301 0 -509 -3 -967 -7
-1018 l-6 -92 -244 1 -243 1 0 947 c0 577 -4 982 -10 1037 -15 133 -37 210
-87 307 -72 140 -173 221 -349 280 -60 20 -89 23 -224 23 -135 0 -164 -3 -224
-23 -319 -107 -510 -348 -555 -701 -7 -55 -11 -394 -11 -978 l0 -893 -255 0
-255 0 0 1500 0 1500 250 0 250 0 0 -27 c1 -16 0 -101 0 -190 0 -90 1 -163 3
-163 3 0 39 41 82 90 166 192 375 307 620 340 50 6 97 13 105 15 35 7 134 4
229 -5z m2576 0 c170 -19 309 -57 435 -120 100 -50 179 -111 275 -212 80 -84
171 -220 159 -239 -3 -5 -30 -24 -60 -42 -31 -18 -63 -37 -72 -42 -9 -6 -39
-23 -67 -39 -27 -16 -77 -46 -110 -66 -109 -67 -98 -67 -139 0 -45 72 -132
161 -201 205 -93 60 -186 87 -315 92 -179 8 -315 -34 -413 -126 -84 -78 -123
-210 -93 -313 38 -133 147 -203 486 -313 355 -115 490 -168 490 -190 0 -17 75
-84 194 -174 193 -146 270 -248 328 -431 21 -67 23 -94 23 -255 0 -161 -2
-188 -24 -255 -42 -133 -91 -215 -188 -315 -203 -209 -440 -289 -853 -289
-206 1 -319 17 -465 66 -205 70 -406 217 -510 374 -41 62 -114 201 -115 219 0
10 141 98 210 132 14 7 65 37 114 68 49 30 92 55 95 55 3 0 21 -31 40 -68 70
-139 174 -244 301 -303 36 -17 72 -35 81 -39 9 -4 65 -18 125 -30 129 -26 224
-24 353 10 109 28 172 60 237 122 72 68 96 132 96 251 -1 83 -3 91 -37 147
-82 135 -266 237 -585 325 -193 53 -251 71 -352 111 -131 52 -195 85 -258 132
-41 31 -81 76 -51 58 7 -5 11 1 11 16 0 13 5 29 10 34 7 7 -17 39 -78 100 -95
97 -136 163 -177 288 -21 66 -25 95 -25 207 0 160 15 229 82 368 40 84 63 118
121 177 95 96 161 145 274 199 117 57 267 94 421 104 64 5 122 9 127 9 6 1 51
-3 100 -8z m5695 -14 c138 -29 188 -45 300 -98 191 -90 297 -186 409 -370 23
-37 41 -72 41 -78 0 -11 -107 -84 -220 -150 -41 -24 -82 -49 -90 -55 -8 -7
-32 -22 -52 -34 l-37 -22 -39 68 c-42 71 -129 162 -197 205 -44 27 -160 72
-215 84 -72 14 -235 6 -301 -15 -121 -40 -221 -117 -267 -206 -22 -43 -26 -63
-26 -140 -1 -76 3 -98 23 -139 68 -135 222 -219 641 -347 52 -16 105 -29 118
-29 12 0 22 -3 22 -8 0 -8 95 -45 123 -48 10 -1 23 -8 30 -16 7 -9 77 -61 157
-117 231 -163 300 -231 367 -366 109 -217 106 -541 -7 -765 -30 -59 -117 -166
-178 -217 -205 -174 -451 -247 -822 -245 -332 2 -546 62 -742 210 -144 108
-211 187 -290 345 l-55 107 36 21 c20 12 50 30 66 39 17 10 71 41 120 70 50
29 109 64 132 77 24 14 45 29 48 34 15 23 38 5 62 -48 91 -200 257 -329 490
-379 261 -57 568 28 664 183 40 64 66 241 39 258 -5 3 -10 15 -10 26 0 33 -36
91 -82 135 -123 117 -263 182 -598 279 -69 20 -138 42 -155 50 -16 7 -77 30
-135 50 -134 48 -185 74 -292 152 -76 56 -142 122 -173 174 -35 57 -60 106
-61 119 -1 8 -10 38 -22 65 -56 136 -53 397 8 583 44 137 84 203 188 314 172
182 397 264 727 267 112 1 163 -4 255 -23z m-16199 -28 c2 -28 -2 -482 -4
-484 -1 -1 -45 -4 -97 -7 -230 -13 -391 -79 -538 -221 -122 -118 -200 -255
-243 -432 -22 -87 -22 -107 -29 -974 -4 -487 -7 -886 -8 -887 -1 -2 -115 -3
-252 -3 l-250 0 2 1493 3 1492 253 3 252 2 0 -231 c0 -205 2 -230 15 -219 8 7
15 18 15 25 0 7 21 41 47 76 127 174 273 288 438 342 104 35 167 44 293 46 99
1 102 0 103 -21z m-4010 -1008 c4 -687 9 -1004 18 -1047 47 -249 152 -405 332
-492 225 -109 452 -104 689 16 77 39 111 63 180 133 95 94 132 155 179 296 49
144 52 223 51 1197 l-1 887 255 0 256 0 -4 -1497 -3 -1498 -246 -3 -247 -2 0
185 c0 102 -2 185 -5 185 -3 0 -52 -49 -110 -109 -153 -158 -291 -244 -470
-290 -232 -61 -531 -49 -739 29 -213 79 -407 255 -513 465 -55 108 -98 269
-123 458 -6 49 -10 459 -10 1078 l0 1000 253 -3 252 -3 6 -985z m16373 5 c5
-928 6 -985 25 -1075 37 -179 84 -273 182 -367 89 -86 181 -134 312 -162 117
-25 185 -26 281 -5 334 74 528 254 604 563 l26 106 3 963 4 962 252 -2 252 -3
3 -637 2 -638 65 0 65 0 -1 -387 c-1 -214 -4 -444 -9 -513 -18 -298 -32 -466
-39 -475 -5 -5 -14 -32 -21 -58 -7 -27 -16 -43 -20 -37 -8 12 -20 -110 -20
-197 l0 -53 -260 0 -260 0 -1 193 0 192 -32 -39 c-172 -208 -347 -327 -562
-381 -224 -57 -526 -41 -725 37 -165 64 -347 215 -445 367 -87 134 -155 332
-175 506 -6 55 -10 481 -10 1108 l0 1017 250 -2 250 -3 4 -980z m1778 -3795
l-2 -705 -81 3 c-67 3 -80 6 -75 19 3 8 6 324 6 701 l0 687 78 0 77 1 -3 -706z
m-3812 669 c0 -5 4 -8 9 -5 16 10 53 -42 58 -81 6 -45 -15 -96 -46 -113 -11
-5 -36 -10 -56 -10 -100 0 -147 117 -77 193 20 21 35 27 69 27 24 0 43 -5 43
-11z m593 -9 c36 -29 52 -81 37 -125 -16 -49 -53 -75 -107 -75 -24 0 -53 5
-64 10 -22 12 -49 61 -48 87 0 16 1 16 9 -2 9 -20 9 -20 9 1 1 11 -4 25 -11
32 -9 9 -9 12 1 12 7 0 11 6 8 13 -2 6 10 24 26 40 38 34 101 37 140 7z m547
-5 c25 -27 28 -35 32 -104 2 -37 -2 -47 -26 -67 -33 -29 -120 -35 -130 -8 -3
8 -10 12 -16 9 -5 -3 -7 0 -4 8 3 9 -3 16 -15 20 -17 4 -21 13 -21 47 0 76 40
119 111 120 36 0 50 -5 69 -25z m-4125 5 l-40 -7 45 -3 c25 -2 59 -3 75 -2 20
2 26 -1 17 -7 -10 -6 -6 -10 15 -16 30 -9 41 -11 60 -13 26 -4 132 -103 156
-146 l25 -46 -38 -30 c-21 -16 -41 -30 -45 -30 -5 0 -24 -12 -43 -27 -26 -19
-34 -22 -29 -10 8 22 -2 49 -16 40 -6 -4 -8 2 -5 15 4 12 2 20 -3 16 -5 -3 -9
-1 -9 5 0 18 -47 61 -96 87 -31 17 -71 28 -109 31 -52 5 -68 2 -110 -20 -48
-25 -125 -95 -125 -113 0 -5 5 -2 11 6 9 12 10 11 4 -5 -28 -81 -11 -167 47
-245 53 -69 93 -110 109 -110 7 0 9 -3 6 -7 -4 -3 30 -45 75 -92 46 -48 120
-126 166 -174 46 -48 86 -87 90 -87 12 0 55 117 88 237 7 25 12 30 23 24 13
-8 13 -12 0 -27 -13 -16 -12 -16 6 -5 17 10 28 9 68 -9 26 -11 47 -27 47 -34
0 -32 -63 -221 -85 -256 -14 -22 -25 -45 -25 -52 0 -7 24 -37 53 -67 28 -29
52 -58 52 -62 0 -5 4 -9 8 -8 11 1 67 -52 67 -62 0 -4 -11 -14 -24 -21 -14 -7
-46 -26 -72 -42 -28 -17 -49 -24 -53 -18 -3 5 -35 41 -70 80 l-64 70 -45 -35
c-57 -43 -120 -75 -152 -78 -46 -3 -51 -5 -46 -13 8 -13 -265 -15 -319 -2 -65
15 -142 55 -181 94 -30 31 -89 116 -79 116 3 0 -3 19 -13 43 -12 30 -17 68
-16 137 1 87 4 101 34 160 18 36 34 72 35 80 1 8 7 14 13 13 6 -2 27 17 47 41
20 24 52 52 71 61 33 15 36 20 30 48 -4 17 -11 34 -16 37 -19 12 -52 104 -57
160 -7 74 29 197 67 230 3 3 19 22 34 42 19 25 33 35 43 31 11 -4 14 -2 9 5
-10 16 59 48 124 57 42 6 50 10 35 16 -12 4 19 7 75 7 71 -1 85 -3 55 -8z
m-10135 -17 c0 -10 0 -128 0 -263 0 -135 4 -251 9 -258 6 -10 13 -6 27 16 26
41 106 101 168 125 62 24 286 38 286 18 0 -8 8 -10 19 -6 11 3 26 -1 35 -11 9
-9 23 -13 31 -10 13 5 19 -5 17 -25 -1 -4 7 -5 17 -2 22 6 134 -88 179 -151
55 -76 84 -182 84 -302 -1 -111 -9 -174 -23 -174 -5 0 -9 -8 -9 -19 0 -57
-114 -199 -199 -246 -50 -29 -55 -30 -46 -12 4 6 1 5 -7 -3 -28 -33 -66 -39
-210 -37 -135 2 -146 4 -198 30 -30 16 -80 55 -111 87 -65 68 -69 66 -69 -39
l0 -67 -80 1 -80 0 0 683 0 682 80 0 c69 0 80 -2 80 -17z m-1577 -55 c-8 -29
-16 -61 -18 -70 -2 -10 -10 -32 -18 -50 -9 -18 -18 -51 -22 -73 -3 -22 -22
-86 -41 -142 -18 -56 -34 -114 -34 -128 0 -14 -4 -25 -10 -25 -5 0 -10 -13
-10 -28 0 -15 -4 -32 -8 -38 -5 -5 -15 -36 -22 -69 -7 -33 -19 -71 -25 -85 -7
-14 -16 -44 -20 -67 -4 -24 -10 -43 -15 -43 -8 0 -11 -11 -29 -110 -6 -30 -15
-56 -21 -58 -5 -2 -10 -14 -10 -28 0 -13 -11 -52 -24 -86 -13 -35 -32 -94 -42
-131 l-19 -68 -100 3 -99 3 -12 55 c-6 30 -18 78 -27 105 -89 278 -126 402
-213 705 -24 85 -49 163 -54 172 -6 10 -10 25 -10 33 0 8 -6 15 -14 15 -9 0
-17 -16 -21 -42 -4 -24 -13 -56 -20 -73 -13 -31 -59 -196 -70 -252 -4 -18 -11
-35 -16 -38 -5 -4 -9 -19 -9 -35 0 -16 -4 -31 -9 -34 -10 -7 -46 -119 -56
-179 -4 -20 -11 -40 -16 -43 -5 -3 -9 -16 -9 -30 0 -14 -9 -46 -19 -72 -11
-26 -34 -101 -53 -167 l-33 -121 -95 4 c-52 3 -98 9 -102 15 -6 9 -31 96 -80
272 -6 22 -22 74 -35 115 -14 41 -31 98 -38 125 -21 76 -81 282 -103 355 -11
36 -30 99 -42 140 -53 181 -64 216 -73 228 -6 8 -6 12 0 12 12 0 5 48 -8 56
-26 15 -1 24 69 24 l79 0 28 -92 c15 -51 34 -104 40 -118 7 -14 16 -39 19 -55
3 -17 12 -50 21 -75 24 -64 45 -147 45 -175 0 -14 4 -25 9 -25 5 0 11 -23 15
-51 4 -28 11 -58 16 -67 12 -21 51 -156 57 -199 3 -18 9 -33 14 -33 5 0 9 -7
9 -16 0 -8 6 -36 14 -62 8 -26 20 -68 27 -94 8 -27 16 -48 20 -48 4 0 16 33
29 73 12 39 30 95 40 122 11 28 33 102 50 165 17 63 47 167 67 230 20 63 56
180 80 260 24 80 48 152 52 160 5 9 12 35 16 58 l7 42 89 0 c81 0 89 -2 89
-19 0 -11 4 -22 9 -26 6 -3 13 -27 17 -53 4 -26 24 -101 44 -167 21 -66 64
-205 95 -310 31 -104 72 -237 90 -295 18 -58 39 -130 46 -160 14 -57 35 -89
48 -74 5 5 15 36 24 69 19 74 39 147 110 390 54 183 108 379 111 400 1 6 4 15
7 20 4 6 12 35 20 65 7 30 16 60 20 65 5 6 11 30 15 53 l6 41 82 3 c44 2 84 2
87 1 3 -1 0 -26 -8 -55z m3467 -430 l0 -483 24 -51 c13 -28 29 -55 35 -59 7
-4 9 -16 6 -28 -2 -12 -2 -16 1 -9 8 18 22 15 29 -8 7 -22 65 -56 130 -78 22
-7 83 -13 135 -13 85 -1 103 2 161 28 77 35 130 92 159 171 20 52 20 73 18
533 l-3 479 82 0 82 0 -3 -497 c-3 -460 -4 -503 -22 -558 -28 -86 -59 -141
-109 -190 -35 -36 -122 -92 -132 -86 -10 5 -33 -1 -29 -8 15 -23 -291 -29
-377 -6 -86 22 -179 72 -230 122 -42 41 -93 129 -113 193 -4 14 -10 251 -13
528 l-6 502 88 0 87 0 0 -482z m10302 465 c43 -9 78 -20 78 -25 0 -4 9 -8 20
-8 11 0 20 -4 20 -10 0 -5 9 -10 20 -10 11 0 20 -4 20 -10 0 -5 5 -10 11 -10
27 0 156 -114 199 -175 79 -113 105 -189 119 -338 22 -230 -40 -418 -187 -565
-87 -87 -149 -124 -237 -142 -33 -7 -64 -16 -70 -20 -5 -4 -160 -8 -343 -9
l-333 -2 1 670 1 671 302 0 c244 0 316 -3 379 -17z m6320 2 c40 -9 107 -33
149 -55 43 -21 79 -37 81 -35 7 8 146 -142 182 -196 20 -30 50 -92 67 -139 31
-81 32 -92 33 -225 0 -143 -13 -211 -58 -320 -17 -39 -104 -175 -113 -175 -2
0 -1 6 3 13 5 8 3 8 -9 -2 -9 -7 -14 -17 -11 -22 3 -5 0 -8 -7 -7 -7 2 -13 -2
-14 -9 0 -6 -4 -15 -9 -20 -5 -5 -6 -3 -2 5 4 6 3 12 -2 12 -13 0 -43 -36 -36
-43 3 -3 -5 -10 -18 -17 -22 -11 -22 -10 -4 4 11 9 15 16 9 16 -7 0 -15 -5
-18 -10 -13 -21 -86 -61 -143 -77 -46 -14 -121 -18 -400 -22 l-342 -6 0 673 1
672 294 0 c226 0 311 -4 367 -15z m-3610 -221 l-3 -146 135 4 136 3 0 -73 0
-74 -97 3 c-54 1 -112 6 -128 9 -17 4 -35 2 -40 -3 -10 -10 -10 -590 0 -634 5
-24 51 -60 87 -70 13 -4 60 -6 106 -5 l82 2 0 -69 0 -69 -103 -1 c-57 -1 -125
3 -151 9 -54 12 -124 53 -133 78 -4 9 -16 30 -27 45 -20 28 -21 43 -23 375
l-3 347 -22 -3 c-13 -2 -58 -6 -100 -9 l-78 -5 0 73 0 74 94 0 c52 0 97 3 101
7 4 4 8 58 8 120 l2 113 62 15 c34 9 65 19 69 23 24 24 29 0 26 -139z m-15744
-111 c18 -4 21 -8 10 -15 -9 -7 -2 -8 20 -4 22 4 31 2 26 -5 -4 -8 1 -9 16 -4
17 5 21 4 15 -6 -6 -9 -3 -11 9 -6 10 4 15 3 11 -3 -3 -6 -4 -10 -1 -10 2 0
12 -3 22 -7 13 -5 15 -3 9 8 -5 8 -5 11 1 6 5 -5 9 -14 9 -20 0 -7 8 -11 18
-11 9 1 14 -3 10 -9 -4 -6 0 -8 10 -4 10 4 16 2 14 -5 -1 -7 3 -12 10 -13 7 0
18 -6 25 -14 11 -12 10 -13 -2 -6 -13 8 -13 6 -1 -8 7 -9 17 -15 21 -12 12 7
83 -82 75 -95 -3 -5 -2 -10 4 -10 6 0 15 -10 22 -21 6 -12 7 -19 1 -15 -5 3
-1 -22 10 -57 22 -71 34 -173 24 -211 l-6 -26 -411 4 c-230 1 -412 -1 -415 -6
-3 -5 2 -33 11 -63 24 -75 103 -156 192 -197 65 -29 71 -30 182 -26 110 4 119
6 171 37 30 18 57 37 58 42 2 5 16 9 30 10 20 0 23 2 10 7 -14 6 -15 10 -3 25
13 18 15 17 55 -8 22 -14 52 -30 65 -35 32 -12 31 -19 -3 -63 -55 -68 -128
-117 -218 -143 -43 -12 -88 -15 -212 -12 -137 4 -163 7 -207 27 -27 12 -52 26
-55 30 -3 5 -20 18 -38 29 -70 42 -135 136 -182 262 -19 49 -24 180 -10 259
12 72 57 164 100 210 16 16 33 39 40 50 6 12 15 19 21 16 5 -4 8 -1 7 6 -2 6
3 14 11 17 9 3 11 0 6 -9 -5 -8 -4 -11 1 -6 5 5 9 14 9 19 0 6 6 13 14 16 9 3
11 0 6 -9 -5 -8 -4 -11 1 -6 5 5 9 14 9 20 0 22 98 61 148 59 36 -2 47 2 47
13 0 12 15 15 78 15 42 0 88 -3 100 -7z m5498 -14 c3 -6 17 -9 30 -6 14 2 21
0 17 -6 -4 -6 2 -8 15 -5 12 4 20 2 17 -2 -3 -5 0 -12 6 -16 8 -4 7 -9 -2 -15
-9 -6 -3 -7 17 -3 24 5 37 0 63 -21 19 -16 30 -34 27 -42 -3 -8 -2 -11 4 -8 5
3 14 -4 21 -16 l12 -22 11 22 c7 12 15 18 19 15 4 -4 7 0 7 8 0 9 15 28 33 42
17 15 37 30 43 35 22 18 55 32 63 27 5 -3 24 -3 42 1 28 5 30 7 14 14 -12 4
24 8 82 8 65 1 103 -3 105 -10 2 -6 19 -13 38 -14 19 -2 37 -4 39 -4 2 -1 -3
-8 -10 -18 -13 -15 -12 -15 10 -4 15 8 21 9 17 2 -5 -7 1 -11 14 -11 12 0 18
-4 15 -10 -3 -5 0 -10 8 -10 20 0 75 -72 103 -137 33 -74 44 -202 44 -528 l0
-251 -72 4 c-40 2 -77 4 -81 5 -4 1 -8 147 -7 324 0 210 -3 338 -11 367 -32
127 -197 193 -331 132 -57 -25 -125 -88 -131 -121 -2 -11 -9 -33 -15 -48 -8
-19 -12 -128 -12 -340 0 -184 -4 -318 -10 -327 -6 -10 -10 -11 -10 -2 0 8 -21
12 -71 12 l-70 0 3 338 3 337 -25 52 c-17 35 -37 59 -63 75 -21 13 -45 29 -52
36 -8 7 -40 12 -75 12 -107 0 -209 -63 -252 -155 -22 -48 -23 -63 -28 -375
l-5 -325 -77 0 -78 -1 0 488 0 488 79 0 80 0 0 -56 c0 -31 2 -58 4 -61 3 -2
15 5 27 17 12 12 41 34 66 50 26 16 40 30 32 33 -7 3 11 8 40 12 28 4 52 11
52 16 0 13 158 11 166 -2z m1594 -1 c0 -9 3 -9 12 0 8 8 46 12 113 11 55 -1
89 -4 75 -7 -22 -4 -19 -6 20 -18 55 -17 63 -17 54 -3 -4 8 0 7 15 -1 12 -6
19 -16 15 -22 -4 -6 1 -8 14 -4 15 5 34 -6 75 -44 31 -28 59 -60 62 -71 14
-43 25 -14 25 66 l0 85 79 0 80 0 -2 -487 -2 -487 -77 -3 -78 -2 0 78 c0 43
-3 81 -7 85 -4 4 -17 -10 -30 -31 -13 -21 -23 -33 -23 -28 0 6 -14 -5 -30 -23
-18 -21 -34 -31 -41 -26 -8 4 -9 3 -5 -5 5 -7 -9 -19 -39 -32 -35 -16 -76 -22
-174 -26 -134 -6 -223 2 -186 17 l20 9 -20 1 c-54 4 -67 9 -112 40 -56 39
-130 123 -159 183 -53 111 -69 259 -39 383 14 60 68 166 103 200 9 10 21 27
27 38 6 12 26 29 45 38 19 10 31 18 25 18 -5 0 -2 5 8 11 9 5 22 7 27 4 6 -4
9 -1 8 6 -2 6 22 22 52 35 64 27 70 28 70 12z m1647 -20 c32 -17 73 -40 92
-49 42 -23 71 -49 71 -64 0 -7 14 -44 32 -81 l32 -69 2 -350 3 -350 -80 2 -81
2 2 319 c1 298 -1 323 -20 374 -35 95 -106 144 -223 154 -121 11 -230 -56
-289 -178 l-28 -57 0 -305 c0 -168 -3 -306 -7 -306 -77 -4 -153 -4 -154 0 -1
3 -2 222 -4 487 l-3 482 82 -2 81 -2 -2 -67 c-3 -67 6 -84 26 -50 6 9 11 13
11 8 0 -6 13 3 30 19 16 15 27 33 23 38 -3 6 -1 7 5 3 7 -4 22 0 34 10 20 14
21 16 3 10 -15 -6 -17 -4 -9 4 7 7 23 13 37 13 14 1 23 5 21 8 -6 11 36 18 70
13 25 -3 27 -3 11 5 -14 7 8 10 77 10 91 1 101 -1 155 -31z m8115 13 c79 -27
120 -50 112 -63 -5 -7 -3 -8 5 -4 14 9 48 -18 62 -49 8 -16 6 -16 -10 4 -12
13 -21 20 -21 15 0 -13 32 -44 46 -44 7 0 17 -8 23 -17 9 -17 10 -17 16 0 4 9
5 49 3 87 l-4 70 83 0 83 0 0 -489 0 -490 -70 6 c-53 4 -70 3 -70 -7 0 -10 -3
-10 -15 0 -12 10 -14 28 -9 91 7 82 -3 102 -27 57 -17 -32 -81 -88 -92 -81 -6
3 -7 1 -3 -5 8 -13 -23 -31 -43 -24 -8 3 -11 0 -7 -7 11 -16 -26 -27 -140 -40
-70 -8 -120 -9 -163 -2 -59 10 -113 30 -81 31 12 0 12 2 1 13 -11 10 -14 9
-18 -1 -14 -37 -191 112 -227 191 -60 132 -70 171 -71 273 0 56 5 112 11 125
73 164 110 217 195 278 21 16 36 31 33 34 -3 3 3 4 13 4 10 -1 17 3 16 10 -3
14 32 27 48 17 8 -4 9 -3 5 4 -4 7 -3 12 3 12 5 0 18 3 28 6 15 5 16 4 3 -6
-12 -9 -10 -10 10 -4 14 3 32 10 40 15 29 16 174 10 232 -10z m3883 13 c10 -4
12 -9 6 -13 -5 -4 11 -14 37 -23 36 -13 43 -14 28 -2 -11 7 -24 14 -30 14 -5
0 -7 3 -3 6 6 7 112 -49 139 -73 10 -9 15 -20 12 -25 -3 -4 0 -7 8 -6 7 2 20
-12 28 -29 27 -59 40 -41 38 55 l-1 87 82 3 81 3 0 -493 -1 -493 -84 0 -84 0
6 78 c3 45 1 77 -4 77 -5 0 -21 -12 -36 -27 -14 -16 -36 -36 -49 -46 -13 -10
-16 -15 -8 -12 8 4 4 -3 -10 -14 -14 -11 -55 -28 -93 -38 -47 -12 -62 -20 -50
-25 36 -14 -174 -7 -236 7 -36 9 -71 13 -78 10 -8 -2 -12 -1 -9 4 3 4 -6 13
-20 20 -15 6 -23 7 -19 1 13 -22 -65 33 -111 78 -31 30 -62 74 -85 122 -58
120 -62 140 -57 269 4 109 7 121 43 195 26 55 57 100 99 143 34 35 61 65 58
67 -2 2 5 3 15 3 9 -1 18 4 18 12 0 8 7 16 15 18 13 4 13 3 0 -7 -12 -9 -10
-10 10 -4 36 9 62 27 30 19 -23 -6 -24 -5 -5 7 38 23 110 37 207 37 53 1 104
-2 113 -5z m1278 -14 c21 -11 43 -17 50 -14 7 4 9 4 5 -1 -4 -4 14 -22 40 -39
26 -18 62 -54 80 -81 l33 -48 -68 -38 c-55 -30 -70 -34 -76 -23 -4 8 -5 19 -1
26 4 7 3 8 -4 4 -7 -4 -12 -2 -12 4 0 28 -65 71 -129 86 -98 23 -153 12 -210
-42 -42 -38 -46 -47 -46 -88 0 -39 5 -51 35 -80 30 -30 56 -41 179 -76 80 -23
161 -50 182 -60 20 -11 40 -16 44 -12 3 4 5 0 3 -8 -2 -9 4 -15 17 -15 11 0
20 -7 20 -15 1 -8 7 -13 15 -12 8 2 12 0 7 -4 -10 -10 23 -45 36 -37 6 3 7 1
3 -5 -4 -7 -2 -12 3 -12 6 0 10 -3 9 -7 -1 -5 4 -34 12 -66 13 -54 12 -63 -9
-130 -15 -45 -35 -85 -55 -105 -41 -44 -120 -85 -149 -77 -15 4 -18 3 -9 -3
10 -7 4 -11 -23 -16 -49 -9 -56 -33 -19 -63 16 -12 37 -23 47 -23 9 0 17 -4
17 -10 0 -5 6 -10 14 -10 22 0 50 -70 49 -126 0 -53 -35 -134 -58 -134 -6 0
-31 -9 -54 -21 -46 -22 -130 -27 -238 -13 l-53 6 0 52 0 51 98 0 c53 0 110 4
125 8 32 9 51 47 42 88 -7 29 -29 41 -107 54 l-37 6 -3 67 -3 66 -80 24 c-44
13 -96 28 -115 32 -22 6 -49 25 -73 52 -48 53 -52 59 -53 78 -1 8 -3 21 -5 28
-2 8 22 28 59 48 35 19 61 30 57 24 -3 -5 -2 -10 4 -10 6 0 21 -16 35 -36 51
-75 124 -104 252 -101 81 2 94 5 126 29 59 45 79 112 53 179 -8 22 -123 77
-206 98 -83 22 -175 53 -211 71 -50 27 -112 86 -129 124 -38 88 8 236 91 294
22 15 39 32 40 39 0 7 19 17 43 23 23 6 47 13 52 15 6 2 57 4 115 4 88 1 112
-2 143 -19z m1257 3 c7 -12 13 -14 16 -6 7 15 70 -11 66 -27 -1 -6 2 -9 8 -5
12 7 53 -19 43 -28 -3 -4 1 -7 9 -7 9 0 30 -18 46 -40 l29 -40 26 39 c14 21
41 49 59 62 l33 22 -35 -38 -35 -38 50 38 c62 46 64 48 41 39 -13 -5 -17 -4
-12 4 4 6 30 18 58 27 61 18 244 21 250 4 2 -6 15 -12 30 -12 14 -1 24 -6 20
-11 -3 -5 2 -6 12 -3 11 5 15 3 10 -5 -5 -8 -1 -9 12 -4 10 4 15 4 11 0 -6 -7
19 -30 35 -33 17 -3 57 -45 51 -54 -3 -6 -1 -7 5 -3 6 3 16 -3 22 -14 6 -11 7
-20 3 -20 -4 0 -1 -5 7 -10 8 -5 15 -15 15 -22 1 -7 8 -26 15 -43 12 -24 15
-104 18 -390 l3 -360 -75 3 c-59 3 -76 1 -78 -9 -1 -8 -5 141 -8 331 -7 358
-9 381 -53 443 -10 15 -38 40 -61 55 -34 22 -52 26 -111 26 -81 0 -134 -7
-143 -20 -4 -5 -26 -24 -48 -42 -31 -23 -47 -47 -62 -89 -19 -53 -21 -86 -25
-376 -3 -175 -7 -321 -10 -324 -4 -3 -39 -2 -80 2 l-74 6 4 310 c3 210 0 322
-7 351 -16 60 -41 111 -62 126 -9 7 -23 18 -30 25 -28 27 -77 36 -207 35 -150
0 -190 -9 -254 -60 -28 -22 -50 -54 -74 -104 l-33 -73 0 -316 0 -316 -21 6
c-33 11 -51 13 -97 14 l-42 1 2 488 3 487 78 3 77 3 0 -66 c0 -66 9 -79 32
-47 26 35 98 85 150 103 77 27 371 28 388 2z m1960 7 c-11 -7 -3 -10 28 -10
30 0 41 -3 36 -12 -5 -8 0 -9 16 -5 16 4 28 0 37 -11 8 -9 11 -11 8 -3 -5 9 0
8 18 -3 14 -10 28 -27 32 -39 4 -15 8 -18 12 -9 4 10 13 6 34 -14 16 -15 29
-33 29 -40 0 -6 6 -17 14 -23 12 -10 15 -5 21 28 4 22 5 62 4 88 l-3 48 79 0
80 0 3 -486 2 -487 -81 2 -82 1 2 78 c1 49 -2 77 -8 77 -6 0 -11 -4 -11 -9 0
-18 -121 -131 -146 -136 -79 -16 -78 -16 -63 -26 9 -5 -40 -9 -132 -9 -139 0
-209 10 -209 32 0 5 -4 6 -10 3 -32 -20 -220 147 -220 195 0 5 -4 10 -10 10
-5 0 -15 19 -21 43 -7 23 -16 47 -19 52 -23 32 -30 232 -11 301 18 69 83 174
141 230 30 30 58 54 62 54 4 0 24 11 44 25 20 14 46 25 58 25 17 0 18 2 6 10
-8 5 -10 10 -5 10 6 0 21 3 35 5 22 5 23 4 5 -5 -17 -9 -15 -9 10 -4 17 3 32
10 33 15 2 5 47 9 100 9 66 0 92 -3 82 -10z m-15802 -14 l62 5 0 -483 c0 -295
-4 -489 -10 -498 -6 -9 -10 -10 -10 -3 0 8 -23 13 -67 15 -56 3 -67 6 -69 22
-3 18 -8 918 -5 944 1 9 6 10 19 3 9 -5 45 -7 80 -5z m4565 -479 c-2 -265 -3
-488 -3 -495 0 -8 -5 -10 -12 -5 -7 4 -40 7 -73 8 l-60 0 -3 490 -2 490 77 -3
78 -3 -2 -482z m-9373 420 c0 -59 -30 -127 -58 -127 -6 0 -11 -3 -10 -7 2 -5
-5 -19 -15 -33 -38 -53 -123 -167 -134 -181 -7 -7 -62 -81 -123 -164 -61 -82
-127 -171 -146 -197 -20 -26 -33 -52 -30 -57 4 -5 118 -9 281 -8 l276 2 -3
-68 -3 -68 -374 1 c-205 0 -377 3 -381 5 -5 3 -10 -1 -13 -7 -3 -7 -5 15 -5
49 0 48 4 65 19 79 10 9 19 21 19 26 0 12 70 108 112 153 21 22 38 45 38 51 0
10 87 127 130 176 24 26 34 41 49 70 8 15 18 25 23 22 4 -3 8 2 8 10 0 9 4 16
9 16 5 0 14 13 20 28 7 16 32 49 57 73 81 79 81 79 -210 79 l-253 0 -6 62 c-3
34 -4 65 -2 68 2 3 166 5 364 5 l361 0 0 -58z m9950 -474 c-1 -604 -3 -626
-65 -720 -22 -32 -40 -51 -44 -45 -4 7 -12 3 -20 -11 -13 -21 -13 -21 4 -7 16
13 18 13 13 0 -2 -8 -13 -15 -24 -15 -20 0 -44 -16 -38 -26 2 -3 -2 -6 -9 -7
-7 0 -33 -6 -59 -12 -25 -6 -64 -10 -85 -8 l-38 3 0 70 0 69 54 2 c62 3 97 30
131 99 19 40 20 62 20 593 l0 552 80 0 80 0 0 -537z m540 50 l0 -483 -80 0
-80 0 0 483 0 482 80 1 80 0 0 -483z m6630 -497 c25 -8 36 -15 25 -15 -21 1
-98 27 -80 28 6 0 30 -6 55 -13z m-1233 -2 c-3 -3 -12 -4 -19 -1 -8 3 -5 6 6
6 11 1 17 -2 13 -5z m6046 -296 c2 -7 0 -21 -4 -30 -6 -11 -5 -19 3 -24 7 -4
8 -3 4 4 -4 8 -2 10 8 6 9 -3 12 -12 9 -21 -4 -11 -2 -14 6 -9 6 4 11 4 10 -1
-3 -18 1 -36 8 -30 3 4 15 0 25 -9 14 -13 15 -20 7 -31 -14 -16 -9 -22 20 -28
11 -2 21 1 21 7 0 5 -7 8 -15 5 -8 -4 -17 -2 -19 2 -3 5 4 8 15 7 11 0 24 -8
29 -16 5 -8 10 -11 10 -6 0 5 10 -4 21 -18 17 -21 24 -25 30 -14 6 10 11 10
21 0 9 -9 8 -12 -7 -13 -11 -1 -26 -1 -34 0 -8 2 -10 -2 -5 -10 4 -8 3 -10 -4
-5 -7 4 -12 1 -12 -6 0 -9 -3 -9 -10 2 -8 13 -11 12 -25 -5 -12 -16 -14 -17
-9 -2 8 23 -8 22 -23 -3 -9 -14 -10 -21 -1 -26 7 -5 8 -3 3 6 -6 9 -4 11 4 5
9 -5 7 -13 -8 -29 -20 -21 -56 -33 -45 -14 3 5 11 5 17 2 7 -4 8 -3 4 2 -10
11 -68 14 -62 3 3 -4 -1 -9 -7 -12 -10 -3 -10 -7 1 -20 7 -10 9 -17 4 -17 -16
0 -34 48 -20 53 7 2 0 4 -16 4 -15 0 -30 -4 -34 -10 -3 -5 -1 -7 5 -3 6 3 19
-6 29 -21 21 -30 23 -47 9 -60 -5 -5 -6 -3 -2 5 4 6 2 12 -4 12 -6 0 -8 4 -5
10 3 5 -1 20 -9 32 -9 12 -16 19 -16 14 0 -5 -9 -1 -20 9 -11 10 -17 21 -15
25 8 13 -23 32 -37 24 -10 -6 -9 -3 1 9 7 9 10 17 5 17 -5 0 -1 5 10 11 15 9
16 13 5 21 -10 7 -7 8 10 4 18 -3 21 -2 13 6 -8 8 -8 15 -1 24 7 8 6 14 -2 20
-8 5 -9 3 -4 -6 6 -9 4 -11 -4 -5 -9 5 -7 13 8 29 20 21 56 33 45 14 -3 -5 -9
-6 -14 -3 -5 3 -11 2 -14 -3 -2 -4 13 -8 34 -8 21 0 37 3 34 7 -2 4 1 9 8 11
7 3 8 9 2 19 -5 8 -9 17 -9 21 0 3 -3 9 -6 12 -3 3 -5 -8 -5 -26 1 -17 -4 -33
-11 -35 -8 -3 -11 3 -8 17 3 17 0 21 -13 16 -14 -5 -13 -3 2 9 11 8 16 15 12
15 -4 0 2 13 13 29 11 15 18 31 14 35 -3 3 -1 6 5 6 5 0 12 -6 15 -12z m-133
-178 c-6 -11 -8 -20 -4 -20 3 0 1 -6 -5 -13 -6 -8 -7 -17 -3 -22 4 -4 -4 -5
-18 -2 -14 4 -28 7 -31 7 -7 0 -20 40 -13 40 2 0 13 -10 25 -22 12 -13 18 -17
14 -9 -5 9 -1 19 10 28 11 7 15 13 9 13 -5 0 -2 5 6 10 21 14 22 13 10 -10z
m-37 -11 c-8 -8 -13 -7 -18 2 -5 8 -4 10 3 5 7 -4 12 -2 12 5 0 7 3 9 7 6 4
-4 2 -12 -4 -18z m192 -130 c-3 -15 0 -19 11 -15 9 3 12 1 9 -4 -3 -6 -14 -10
-23 -10 -15 0 -15 -2 -2 -10 9 -6 10 -10 3 -10 -6 0 -14 -13 -18 -30 -7 -30
-24 -41 -26 -17 -3 28 4 51 20 63 11 8 11 13 2 18 -9 6 -9 11 0 22 17 20 28
17 24 -7z"/>
<path d="M22913 6150 c-114 -17 -289 -89 -383 -159 -203 -149 -318 -322 -387
-579 -22 -84 -26 -123 -31 -297 -4 -187 -3 -209 22 -334 15 -74 36 -155 46
-179 11 -24 17 -49 13 -55 -4 -6 -1 -7 7 -2 8 5 11 3 8 -6 -4 -12 9 -39 73
-149 149 -259 466 -435 779 -434 108 1 220 24 352 74 119 44 307 189 388 298
135 183 201 386 214 657 19 377 -73 671 -278 892 -190 206 -525 316 -823 273z"/>
<path d="M29570 2260 c0 -5 5 -10 11 -10 5 0 7 5 4 10 -3 6 -8 10 -11 10 -2 0
-4 -4 -4 -10z"/>
<path d="M30071 2324 c0 -11 3 -14 6 -6 3 7 2 16 -1 19 -3 4 -6 -2 -5 -13z"/>
<path d="M25840 1722 c-68 -44 -98 -75 -130 -133 -29 -54 -34 -74 -34 -129 0
-36 6 -78 13 -95 7 -16 12 -31 12 -32 -1 -9 77 -81 114 -104 42 -26 54 -29
133 -29 48 0 105 5 127 11 22 6 54 11 72 12 17 1 30 3 28 5 -5 5 33 42 43 42
5 0 19 11 31 24 19 20 21 28 11 43 -9 16 -10 15 -4 -7 3 -14 5 -23 3 -20 -2 3
-22 25 -44 50 -39 44 -39 44 -5 15 34 -29 34 -29 -4 12 -21 23 -42 41 -45 40
-6 -1 -146 142 -209 213 -94 107 -84 100 -112 82z"/>
<path d="M26110 1496 c0 -2 8 -10 18 -17 15 -13 16 -12 3 4 -13 16 -21 21 -21
13z"/>
<path d="M16248 1911 c-76 -24 -138 -62 -166 -100 -13 -17 -27 -29 -31 -26
-11 6 -36 -23 -27 -32 3 -3 6 -1 6 5 0 7 5 12 11 12 10 0 -19 -60 -35 -72 -21
-14 -33 -195 -16 -226 5 -9 19 -43 31 -76 13 -35 28 -60 39 -63 10 -3 23 -15
30 -29 7 -13 16 -21 20 -19 4 3 15 -7 25 -21 9 -14 19 -23 22 -20 4 3 13 0 22
-8 32 -28 251 -60 251 -37 0 5 15 13 32 16 73 17 171 102 210 183 18 39 22 65
23 152 0 102 -1 107 -38 180 -50 97 -61 109 -127 144 -110 57 -187 67 -282 37z"/>
<path d="M16680 1721 c0 -5 5 -13 10 -16 6 -3 10 -2 10 4 0 5 -4 13 -10 16 -5
3 -10 2 -10 -4z"/>
<path d="M27658 2213 c-5 -170 -6 -877 -2 -931 l6 -64 226 4 c253 4 291 12
389 79 26 19 51 34 55 34 10 0 57 55 93 111 19 28 45 84 58 125 21 65 24 88
20 188 -2 63 -8 120 -14 127 -6 7 -8 17 -5 22 9 15 -15 73 -51 123 -18 26 -33
50 -33 54 0 17 -91 93 -145 121 -101 53 -167 64 -393 64 l-202 0 -2 -57z"/>
<path d="M28325 1310 c3 -5 8 -10 11 -10 2 0 4 5 4 10 0 6 -5 10 -11 10 -5 0
-7 -4 -4 -10z"/>
<path d="M34005 2258 c-3 -7 -4 -242 -3 -523 l3 -510 197 -3 c173 -2 206 0
275 18 43 12 98 33 123 48 25 14 49 25 55 23 5 -1 7 1 3 5 -9 8 10 34 24 34 5
0 6 -6 2 -12 -4 -7 2 -5 14 6 12 10 19 22 17 27 -3 4 9 22 26 41 40 42 85 136
100 207 7 33 10 101 7 166 -5 103 -8 116 -46 195 -22 47 -54 99 -70 117 -17
17 -28 34 -25 37 4 3 -1 6 -10 6 -8 0 -24 11 -34 24 -23 29 -143 83 -214 96
-79 15 -438 13 -444 -2z"/>
<path d="M30873 1093 c9 -2 23 -2 30 0 6 3 -1 5 -18 5 -16 0 -22 -2 -12 -5z"/>
<path d="M15005 1932 c-78 -8 -244 -89 -230 -112 3 -5 -6 -18 -21 -29 -15 -12
-23 -25 -18 -32 5 -8 3 -9 -6 -4 -10 6 -12 4 -7 -7 3 -9 2 -19 -3 -24 -5 -5
-12 -28 -16 -51 l-7 -43 341 0 340 0 -8 34 c-4 18 -20 60 -36 92 -16 33 -28
62 -26 67 1 4 -2 7 -6 7 -5 0 -20 10 -33 21 -57 51 -182 89 -264 81z"/>
<path d="M15258 1093 c7 -3 16 -2 19 1 4 3 -2 6 -13 5 -11 0 -14 -3 -6 -6z"/>
<path d="M21004 2024 c-18 -14 -18 -14 6 -3 31 14 36 19 24 19 -6 0 -19 -7
-30 -16z"/>
<path d="M22009 1943 c-13 -16 -12 -17 4 -4 16 13 21 21 13 21 -2 0 -10 -8
-17 -17z"/>
<path d="M22263 1915 c-24 -7 -43 -11 -43 -9 0 3 -6 0 -12 -6 -7 -5 -35 -25
-62 -43 -27 -17 -54 -41 -60 -52 -6 -11 -13 -22 -16 -25 -3 -3 -11 -16 -19
-30 -42 -72 -43 -80 -39 -198 4 -117 18 -168 60 -214 44 -48 61 -70 48 -63
-13 8 -13 7 0 -9 8 -10 16 -14 18 -7 2 6 18 1 40 -13 62 -40 106 -49 201 -42
47 3 95 6 107 6 35 1 158 122 189 187 34 70 46 196 24 259 -7 22 -12 45 -11
52 2 7 -4 15 -13 18 -8 3 -15 10 -15 16 0 5 6 6 13 2 7 -4 9 -3 4 2 -5 5 -14
9 -20 9 -7 0 -13 6 -13 13 -1 6 -2 17 -3 22 0 6 -6 10 -11 10 -6 0 -26 15 -45
34 -80 80 -217 114 -322 81z"/>
<path d="M32060 2006 c0 -2 7 -7 16 -10 8 -3 12 -2 9 4 -6 10 -25 14 -25 6z"/>
<path d="M31755 1904 c-33 -14 -69 -27 -80 -28 -11 -2 -23 -4 -27 -5 -5 0 -8
-6 -8 -12 0 -8 6 -7 18 2 15 13 16 12 4 -3 -8 -9 -19 -15 -26 -12 -7 3 -19 -3
-27 -13 -13 -17 -13 -17 6 -4 11 7 2 -2 -19 -22 -26 -22 -36 -39 -31 -47 6 -9
4 -11 -5 -5 -10 6 -12 4 -7 -8 3 -10 2 -17 -3 -17 -18 0 -34 -78 -33 -165 1
-127 18 -181 76 -233 20 -19 23 -37 5 -26 -9 5 -9 3 1 -9 7 -9 17 -14 22 -11
5 3 26 -8 46 -24 50 -39 135 -69 202 -71 63 -2 124 19 201 68 30 19 59 34 63
33 5 -1 5 2 2 8 -4 7 2 21 12 33 61 68 89 167 78 272 -4 36 -11 65 -16 65 -5
0 -6 7 -3 15 3 8 -7 31 -24 52 -16 21 -32 47 -36 58 -7 22 -72 71 -126 97
-101 46 -176 50 -265 12z"/>
<path d="M35661 1905 c-82 -28 -135 -61 -125 -77 4 -6 2 -8 -3 -5 -13 8 -27
-8 -55 -60 -62 -115 -60 -111 -55 -212 5 -100 22 -175 37 -166 7 4 23 -25 25
-46 0 -4 16 -21 35 -39 89 -84 245 -125 349 -93 64 19 68 20 80 22 13 2 112
106 134 141 10 17 22 28 25 26 20 -12 24 286 5 306 -7 6 -13 18 -13 25 0 7 -8
21 -17 31 -10 10 -30 32 -44 48 -38 41 -66 61 -129 91 -79 37 -156 40 -249 8z"/>
<path d="M36948 2033 c7 -3 16 -2 19 1 4 3 -2 6 -13 5 -11 0 -14 -3 -6 -6z"/>
<path d="M38043 2033 c9 -2 23 -2 30 0 6 3 -1 5 -18 5 -16 0 -22 -2 -12 -5z"/>
<path d="M37956 2005 c-11 -8 -18 -17 -15 -19 2 -2 15 4 28 15 27 22 15 26
-13 4z"/>
<path d="M40570 1950 c0 -5 5 -10 11 -10 5 0 7 5 4 10 -3 6 -8 10 -11 10 -2 0
-4 -4 -4 -10z"/>
<path d="M40196 1914 c-22 -8 -46 -12 -53 -9 -8 2 -11 1 -8 -5 3 -5 -14 -18
-38 -28 -25 -11 -48 -25 -52 -32 -6 -9 -4 -11 6 -5 12 7 12 6 1 -6 -7 -8 -18
-14 -25 -14 -7 -1 -11 -7 -9 -14 2 -8 -6 -23 -16 -35 -11 -11 -23 -31 -27 -44
-3 -12 -9 -20 -13 -18 -16 10 -22 -251 -6 -262 5 -4 18 -27 29 -52 21 -47 103
-140 123 -140 7 0 12 -4 12 -10 0 -5 7 -10 15 -10 8 0 24 -4 35 -10 11 -5 29
-15 40 -20 49 -25 217 -1 261 37 9 7 18 11 21 8 3 -3 18 7 34 22 16 15 34 28
39 28 6 0 9 8 7 18 -2 10 3 17 13 17 9 0 13 5 10 10 -3 6 3 23 14 39 65 91 65
272 0 363 -10 15 -19 32 -19 37 0 18 -85 84 -147 113 -76 36 -185 46 -247 22z"/>
<path d="M40025 1270 c3 -5 8 -10 11 -10 2 0 4 5 4 10 0 6 -5 10 -11 10 -5 0
-7 -4 -4 -10z"/>
<path d="M19245 1480 c-10 -11 -16 -22 -13 -25 3 -3 13 6 22 20 20 30 16 32
-9 5z"/>
<path d="M19317 1383 c-4 -3 -7 -11 -7 -17 0 -6 5 -5 12 2 6 6 9 14 7 17 -3 3
-9 2 -12 -2z"/>
<path d="M29365 780 c-3 -5 1 -10 10 -10 9 0 13 5 10 10 -3 6 -8 10 -10 10 -2
0 -7 -4 -10 -10z"/>
<path d="M41690 694 c0 -16 39 -58 47 -51 3 4 13 1 22 -6 14 -11 14 -10 2 5
-7 10 -17 16 -21 13 -5 -3 -18 7 -29 22 -11 16 -21 23 -21 17z"/>
<path d="M41763 575 c0 -8 4 -12 9 -9 5 3 6 10 3 15 -9 13 -12 11 -12 -6z"/>
<path d="M41797 565 c-15 -11 -15 -13 -2 -18 8 -4 14 -3 14 1 -3 21 3 24 14 7
9 -12 16 -14 21 -7 11 18 -27 32 -47 17z"/>
<path d="M41575 540 c-8 -13 3 -30 18 -30 8 0 7 3 -2 9 -7 5 -10 14 -7 20 4 6
5 11 2 11 -3 0 -8 -4 -11 -10z"/>
<path d="M5515 7499 c-27 -4 -97 -15 -155 -24 -202 -31 -444 -131 -605 -253
-250 -187 -437 -451 -555 -779 -47 -134 -75 -238 -135 -513 -25 -113 -47 -214
-50 -225 -3 -11 -34 -150 -70 -310 -89 -393 -95 -417 -105 -440 -10 -23 -19
-74 -30 -165 -5 -36 -13 -101 -19 -145 -13 -103 -110 -540 -162 -725 -33 -119
-88 -342 -94 -377 -4 -24 -11 -43 -16 -43 -5 0 -9 -10 -9 -22 0 -13 -7 -48
-16 -78 -40 -146 -98 -373 -134 -530 -35 -150 -90 -383 -100 -420 -20 -72 -90
-361 -90 -371 0 -6 219 -8 598 -7 l597 3 23 90 c12 50 24 107 26 127 3 20 9
45 14 55 11 20 23 87 23 120 -1 13 3 23 8 23 8 0 31 95 34 145 1 11 6 23 10
26 5 3 11 34 14 68 3 33 10 61 14 61 5 0 9 8 9 19 0 27 64 292 114 471 24 85
54 200 66 255 13 55 28 118 35 140 11 36 52 186 76 275 5 19 17 69 27 110 l18
75 869 5 868 5 12 45 c7 25 19 79 28 120 9 41 28 129 42 196 14 66 30 170 35
230 10 111 28 205 81 417 16 65 29 120 29 122 0 3 -389 5 -865 5 -804 0 -865
1 -865 17 0 9 9 51 20 92 19 75 126 532 140 601 68 333 212 493 471 528 37 4
407 7 822 5 416 -1 762 0 770 3 8 3 20 24 26 47 17 69 58 239 112 472 79 340
98 429 99 448 0 16 -54 17 -1002 16 -552 -1 -1025 -5 -1053 -10z"/>
<path d="M37440 6149 c-75 -13 -216 -57 -265 -82 -73 -37 -185 -117 -243 -175
-66 -65 -103 -117 -157 -217 -20 -38 -41 -75 -46 -81 -18 -22 -59 -155 -70
-226 -5 -40 -14 -100 -20 -133 -19 -119 3 -421 41 -567 55 -211 192 -417 355
-533 80 -58 213 -121 295 -140 36 -9 83 -21 105 -28 56 -17 216 -14 314 6 47
10 90 21 95 26 6 4 31 13 56 20 121 35 271 137 369 250 122 141 198 295 237
481 25 119 28 156 28 315 1 188 -11 270 -57 415 -11 36 -20 69 -19 73 3 12
-77 155 -121 217 -135 187 -341 322 -567 369 -76 16 -264 22 -330 10z"/>
<path d="M1 2233 l-1 -2233 1717 0 c944 0 1714 2 1712 4 -2 2 -91 38 -198 81
-107 42 -229 95 -272 116 -43 22 -82 39 -88 39 -5 0 -11 3 -13 8 -1 4 -48 30
-102 57 -186 93 -444 252 -657 403 -110 78 -223 164 -244 187 -11 12 -51 47
-90 77 -38 31 -90 76 -116 100 -25 24 -63 59 -85 79 -100 92 -379 396 -464
509 -19 25 -39 50 -45 56 -14 15 -43 54 -132 179 -129 180 -147 209 -268 417
-71 121 -110 194 -165 303 -36 72 -67 132 -70 135 -5 5 -35 76 -92 220 -79
203 -198 597 -198 659 0 12 -4 29 -10 39 -22 41 -85 426 -104 642 -12 136 -14
-115 -15 -2077z"/>
</g>
</svg>
